#N canvas 1128 61 1181 980 12;
#X obj 301 503 netsend -u -b;
#X msg 529 340 connect 127.0.0.1 8001;
#X obj 313 71 comport;
#X msg 462 24 close;
#X obj 312 98 pdchoco/slip_parse;
#X obj 311 160 list trim;
#X obj 312 133 oscparse;
#X text -7 241 laisse passer quand y a un chnagement;
#X obj 1031 684 max;
#X text 1166 241 envoie la note 60 du clavier midi;
#X msg 314 25 baud 115200 \, open 6;
#X msg 558 438 disconnect;
#X msg 252 25 devices;
#X obj 308 240 route bouton;
#X obj 298 291 oscformat -f i bouton;
#X connect 1 0 0 0;
#X connect 2 0 4 0;
#X connect 3 0 2 0;
#X connect 4 0 6 0;
#X connect 5 0 13 0;
#X connect 6 0 5 0;
#X connect 10 0 2 0;
#X connect 11 0 0 0;
#X connect 12 0 2 0;
#X connect 13 0 14 0;
#X connect 14 0 0 0;
